<svg width="28" height="28" viewBox="0 0 28 28" fill="none" xmlns="http://www.w3.org/2000/svg">
<path d="M18.9492 0.0822268C17.8117 0.328321 16.5375 1.02285 15.7555 1.81582C14.5633 3.02988 13.9453 4.49004 13.9453 6.09238V6.46973L14.5633 6.43691C15.7555 6.37129 16.5812 5.99941 17.5164 5.0916C18.8891 3.7627 19.5727 2.2916 19.5781 0.640039V0.000195503L19.4305 0.00566435C19.343 0.00566435 19.1297 0.0439453 18.9492 0.0822268Z" fill="black"/>
<path d="M18.0742 6.8634C17.4617 6.97278 16.7781 7.18606 15.6625 7.61262C14.6617 7.98996 14.6125 8.00637 14.1367 8.00637C13.6828 8.00637 13.5953 7.98996 13.043 7.77121C11.0906 7.00012 10.2758 6.80325 9.1875 6.85246C8.20859 6.89621 7.59609 7.07121 6.59531 7.59074C4.62656 8.60246 3.19375 10.7134 2.72891 13.2673C2.55391 14.2189 2.55391 15.9962 2.72891 17.1173C3.22656 20.3439 4.35859 23.0017 6.3 25.5228C7.81484 27.4861 9.07266 28.2189 10.4562 27.94C10.8555 27.8634 11.1617 27.765 12.1023 27.4204C14.1586 26.6657 14.9023 26.6767 17.1336 27.5025C18.0633 27.847 18.5062 27.9454 19.1516 27.9454C20.65 27.9454 21.6289 27.2072 23.2586 24.8337C24.1391 23.5486 24.8555 22.1923 25.2602 21.0439L25.4242 20.5681L25.0578 20.3657C23.7617 19.6439 22.9086 18.8126 22.3508 17.7298C21.6562 16.3845 21.4758 14.629 21.8805 13.0978C22.0172 12.5673 22.2852 11.9822 22.6078 11.4954C22.9305 11.0087 23.6961 10.2431 24.232 9.86575C24.582 9.61965 24.6531 9.54309 24.6148 9.47199C24.3961 9.07278 23.6852 8.3509 23.1602 7.9845C22.3781 7.44856 21.35 7.04387 20.3219 6.8634C19.7422 6.76496 18.6102 6.76496 18.0742 6.8634Z" fill="black"/>
</svg>
