<svg width="28" height="28" viewBox="0 0 28 28" fill="none" xmlns="http://www.w3.org/2000/svg">
<path d="M15.3781 2.9586C13.0375 3.45078 11.6047 5.1625 11.375 7.73281C11.3477 8.06641 11.3203 8.91406 11.3203 9.6086V10.8828H9.78906H8.25234L8.12109 11.0195L7.98438 11.1508V13.1523V15.1539L8.12109 15.2852L8.25234 15.4219H9.78906H11.3203V20.0266C11.3203 23.0453 11.3422 24.7078 11.375 24.8391C11.4078 24.9539 11.4789 25.0688 11.5391 25.1016C11.6047 25.1344 12.4141 25.1562 13.6992 25.1562H15.7555L15.8867 25.0195L16.0234 24.8883V20.1578V15.4273L17.8555 15.4109C19.5234 15.3945 19.693 15.3836 19.7805 15.2961C19.868 15.2086 19.8789 15.0391 19.8953 13.3273C19.9117 11.3914 19.9008 11.1945 19.775 11.0141C19.6984 10.9156 19.5945 10.9102 17.8719 10.8828L16.0508 10.8555V9.4336C16.0508 7.86406 16.0727 7.73281 16.368 7.45391C16.6469 7.18594 16.8109 7.1586 18.3477 7.12578C19.7313 7.09297 19.7695 7.0875 19.8898 6.96719L20.0156 6.84141V4.96016V3.07891L19.8898 2.96406C19.7641 2.84375 19.7422 2.84375 17.8227 2.84922C16.1219 2.84922 15.8266 2.86563 15.3781 2.9586Z" fill="#1877F2"/>
</svg>
