<svg width="28" height="28" viewBox="0 0 28 28" fill="none" xmlns="http://www.w3.org/2000/svg">
<g clip-path="url(#clip0_1820_376)">
<path opacity="0.992" fill-rule="evenodd" clip-rule="evenodd" d="M12.7695 -0.0273438C13.5898 -0.0273438 14.4102 -0.0273438 15.2305 -0.0273438C18.1058 0.277668 20.6671 1.33496 22.9141 3.14453C22.9505 3.18099 22.9505 3.21745 22.9141 3.25391C21.4004 4.47601 19.8874 5.69734 18.375 6.91797C15.1612 5.13785 12.0349 5.27457 8.99609 7.32812C7.65915 8.38195 6.69304 9.70359 6.09766 11.293C4.56857 10.0358 3.03732 8.77795 1.50391 7.51953C3.96973 3.09539 7.72494 0.579764 12.7695 -0.0273438Z" fill="#F14335"/>
<path opacity="0.994" fill-rule="evenodd" clip-rule="evenodd" d="M1.50391 7.51953C3.03732 8.77795 4.56857 10.0358 6.09766 11.293C5.48937 13.1667 5.52584 15.0261 6.20703 16.8711C4.69162 18.1314 3.16037 19.371 1.61328 20.5898C0.70216 18.9138 0.155283 17.1274 -0.0273438 15.2305C-0.0273438 14.3919 -0.0273438 13.5534 -0.0273438 12.7148C0.167992 10.8952 0.678409 9.16349 1.50391 7.51953Z" fill="#FABA00"/>
<path opacity="0.993" fill-rule="evenodd" clip-rule="evenodd" d="M27.9727 12.7148C27.9727 13.5534 27.9727 14.3919 27.9727 15.2305C27.5365 19.1811 25.7865 22.4077 22.7227 24.9102C21.2197 23.6393 19.7067 22.3815 18.1836 21.1367C19.8269 20.1312 20.9935 18.7276 21.6836 16.9258C19.2044 16.9258 16.7252 16.9258 14.2461 16.9258C14.2461 15.0664 14.2461 13.207 14.2461 11.3477C18.7487 11.3477 23.2513 11.3477 27.7539 11.3477C27.8277 11.8105 27.9006 12.2662 27.9727 12.7148Z" fill="#518EF7"/>
<path opacity="0.994" fill-rule="evenodd" clip-rule="evenodd" d="M6.20703 16.8711C7.12813 19.2232 8.76876 20.8547 11.1289 21.7656C13.5752 22.5902 15.9268 22.3806 18.1836 21.1367C19.7067 22.3815 21.2197 23.6393 22.7227 24.9102C20.535 26.6687 18.0376 27.6895 15.2305 27.9727C14.4102 27.9727 13.5898 27.9727 12.7695 27.9727C8.52841 27.5068 5.12865 25.5744 2.57031 22.1758C2.21573 21.6668 1.89672 21.1381 1.61328 20.5898C3.16037 19.371 4.69162 18.1314 6.20703 16.8711Z" fill="#28B346"/>
</g>
<defs>
<clipPath id="clip0_1820_376">
<rect width="28" height="28" fill="white"/>
</clipPath>
</defs>
</svg>
