<?xml version="1.0" encoding="UTF-8"?>
<!DOCTYPE svg PUBLIC "-//W3C//DTD SVG 1.1//EN" "http://www.w3.org/Graphics/SVG/1.1/DTD/svg11.dtd">
<svg xmlns="http://www.w3.org/2000/svg" version="1.1" width="512px" height="512px" style="shape-rendering:geometricPrecision; text-rendering:geometricPrecision; image-rendering:optimizeQuality; fill-rule:evenodd; clip-rule:evenodd" xmlns:xlink="http://www.w3.org/1999/xlink">
<g><path style="opacity:0.998" fill="#1138f7" d="M 232.5,-0.5 C 247.833,-0.5 263.167,-0.5 278.5,-0.5C 378.271,12.4486 449.438,64.4486 492,155.5C 502.136,180.379 508.636,206.046 511.5,232.5C 511.5,247.833 511.5,263.167 511.5,278.5C 498.551,378.271 446.551,449.438 355.5,492C 330.622,502.136 304.955,508.636 278.5,511.5C 263.167,511.5 247.833,511.5 232.5,511.5C 132.727,498.549 61.5605,446.549 19,355.5C 8.86392,330.621 2.36392,304.954 -0.5,278.5C -0.5,263.167 -0.5,247.833 -0.5,232.5C 12.4486,132.729 64.4486,61.5622 155.5,19C 180.379,8.86392 206.046,2.36392 232.5,-0.5 Z"/></g>
<g><path style="opacity:1" fill="#fcfdfe" d="M 250.5,134.5 C 262.369,133.515 270.535,138.515 275,149.5C 275.5,177.498 275.667,205.498 275.5,233.5C 302.835,233.333 330.169,233.5 357.5,234C 374.475,239.927 378.642,250.76 370,266.5C 367.01,269.491 363.51,271.657 359.5,273C 331.502,273.5 303.502,273.667 275.5,273.5C 275.667,301.502 275.5,329.502 275,357.5C 268.625,372.432 258.125,376.265 243.5,369C 240.117,365.731 237.617,361.897 236,357.5C 235.5,329.502 235.333,301.502 235.5,273.5C 207.165,273.667 178.831,273.5 150.5,273C 136.82,266.292 133.32,256.125 140,242.5C 143.092,238.072 147.259,235.239 152.5,234C 180.165,233.5 207.831,233.333 235.5,233.5C 235.333,205.498 235.5,177.498 236,149.5C 239.021,142.647 243.855,137.647 250.5,134.5 Z"/></g>
</svg>
