<?xml version="1.0" encoding="UTF-8"?>
<!DOCTYPE svg PUBLIC "-//W3C//DTD SVG 1.1//EN" "http://www.w3.org/Graphics/SVG/1.1/DTD/svg11.dtd">
<svg xmlns="http://www.w3.org/2000/svg" version="1.1" width="512px" height="512px" style="shape-rendering:geometricPrecision; text-rendering:geometricPrecision; image-rendering:optimizeQuality; fill-rule:evenodd; clip-rule:evenodd" xmlns:xlink="http://www.w3.org/1999/xlink">
<g><path style="opacity:0.994" fill="#000000" d="M 511.5,162.5 C 511.5,174.833 511.5,187.167 511.5,199.5C 506.579,233.415 493.746,264.082 473,291.5C 452.455,317.368 429.955,341.535 405.5,364C 363.353,400.903 321.02,437.57 278.5,474C 263.167,486.667 247.833,486.667 232.5,474C 189.98,437.57 147.647,400.903 105.5,364C 81.0448,341.535 58.5448,317.368 38,291.5C 17.254,264.082 4.42062,233.415 -0.5,199.5C -0.5,187.167 -0.5,174.833 -0.5,162.5C 5.35318,113.275 28.6865,74.7752 69.5,47C 110.119,24.4263 152.119,21.4263 195.5,38C 219.581,49.5829 239.581,66.0829 255.5,87.5C 297.674,32.5295 352.007,15.3628 418.5,36C 458.881,52.7145 486.714,81.5478 502,122.5C 506.27,135.71 509.437,149.044 511.5,162.5 Z"/></g>
</svg>
